<svg xmlns="http://www.w3.org/2000/svg" width="121.016" height="45.666" viewBox="0 0 121.016 45.666"><g transform="translate(-0.5)"><g transform="translate(0.5)"><path d="M443.515,11.734l2.472,14.4h-5.135ZM445.219,0l-6.935,36.907H436.7v.432h4.031v-.432H438.86l1.872-10.295h5.3l1.824,10.295h-1.464v.456h6.647v-.456h-1.464Z" transform="translate(-332.026)"/><path d="M13.314.288h.192l.552,12.838H13.89C13.53,11.662,12.522.384,8.611.384,5.611.384,4.6,14.23,4.6,18.862c0,6,.744,18.622,4.1,18.622,1.632,0,2.5-2.784,2.5-6.455V19.341H9.4v-.456h7.271v.456H14.85V37.7h-.216c-.264-.768-.312-2.328-1.488-2.328-1.32,0-2.712,2.712-4.535,2.712C2.588,38.035.5,26.9.5,18.886.5,12.238,2.924,0,8.611,0a2.508,2.508,0,0,1,2.376,1.344c.576.816,1.632.984,2.088-.048a5.121,5.121,0,0,0,.24-1.008" transform="translate(-0.5)"/><path d="M101.568,0h7.679c3.672,0,6.071,4.079,6.071,9,0,4.9-2.016,9.455-5.087,9.455-.408,0-.384.24,0,.24,1.848,0,3.24,2.112,3.528,2.688,1.128,2.28.36,12.766,1.488,13.8.96.864,1.656-.5,1.776-.7l.12.1c-.024.1-.84,2.808-2.9,2.808-1.728,0-2.592-2.112-2.832-3.432-.408-2.16-.264-8.735-.48-10.079-.192-1.152-.72-4.607-2.328-4.9a5.986,5.986,0,0,0-1.752-.12V36.523h1.632v.456H101.4v-.456h1.824V.48H101.64V0Zm5.207.456v17.9a3.535,3.535,0,0,0,3.264-1.584c1.2-1.536,1.68-5.423,1.68-8.327,0-3.1-1.536-8.015-3.528-8.015Z" transform="translate(-77.187)"/><path d="M200.715,11.758l2.5,14.446h-5.159ZM202.419,0l-6.935,37H193.9v.432h4.031V37H196.06l1.9-10.319h5.327L205.107,37h-1.464v.456h6.671V37H208.85Z" transform="translate(-147.49)"/><path d="M382.732,37.535V1.156H381.1V.7h6.935v.456H386.4V37.535h1.632v.456H381.1v-.456h1.632V1.156" transform="translate(-289.768 -0.532)"/><g transform="translate(69.351 0.168)"><path d="M302.65,37.991V27.1h-.36c-.1,6.5-.5,10.439-5.807,10.439H293.2L302.554.7h-12.79V11.595h.336c.1-6.5.5-10.439,5.807-10.439h2.88L289.5,37.991Z" transform="translate(-289.5 -0.7)"/></g></g><path d="M40.923,173.671h-.48v.12h1.464v-.12h-.48v-4.655h.1c.84,0,1.032.192,1.032,1.32h.072V168.9h-2.88v1.44h.072c0-1.128.192-1.32,1.032-1.32h.1v4.655Zm-4.655.168h.072c0-.12,0-.288.12-.288.168,0,.432.36.888.36.7,0,1.032-.672,1.032-1.584,0-.888-.288-1.224-.984-1.392-.792-.216-.936-.336-.936-.96,0-.648.288-1.032.7-1.032.624,0,.936.72.96,1.512h.072v-1.44h-.072c-.024.1-.024.264-.144.264-.168,0-.336-.432-.84-.432-.528,0-.888.576-.888,1.368,0,1.152.36,1.344,1.08,1.512.552.12.792.336.792,1.056,0,.624-.336,1.032-.768,1.032-.576,0-1.032-.552-1.032-1.7h-.072v1.728Zm-2.52-1.728h-.96l.456-2.088h0Zm.36,1.56h-.456v.12h1.392v-.12H34.66L33.508,168.8H33.46l-1.008,4.463c-.1.384-.144.408-.288.408H32.02v.12H33v-.12h-.24c-.144,0-.216-.072-.216-.168a3.236,3.236,0,0,1,.072-.432l.192-.864H33.82Zm-5.759,0h-.408v.12H30.7v-1.416h-.072c0,1.176-.36,1.3-1.128,1.3h-.648v-2.3h.36c.5,0,.552.312.552.84h.072V170.36h-.072c0,.456-.048.888-.528.888h-.36v-2.232h.744c.5,0,.864.264.864,1.056h.072l-.048-1.176h-2.52v.12H28.4v4.655Zm-6.359,0h-.408v.12h2.76v-1.416h-.072c0,1.176-.36,1.3-1.128,1.3h-.648v-2.3h.36c.5,0,.552.312.552.84h.072V170.36h-.072c0,.456-.048.888-.528.888h-.36v-2.232h.744c.5,0,.864.264.864,1.056H24.2l-.048-1.176H21.581v.12h.408Zm-3.983,0h-.48v.12h2.808v-1.584h-.072c0,1.3-.288,1.488-1.2,1.488h-.6V169.04h.48v-.12H17.526v.12h.48Zm-3.983-4.631h.24c1.152,0,1.392,1.152,1.392,2.328,0,2.088-.792,2.328-1.224,2.328h-.408Zm-.48,4.631h-.456v.12h1.488c.96,0,1.608-.936,1.608-2.424,0-.912-.36-2.424-1.608-2.424H13.086v.12h.456ZM9.679,169.04h.24c1.152,0,1.392,1.152,1.392,2.328,0,2.088-.792,2.328-1.224,2.328H9.679Zm-.48,4.631H8.743v.12h1.488c.96,0,1.608-.936,1.608-2.424,0-.912-.36-2.424-1.608-2.424H8.743v.12H9.2Zm-2.472,0H6.3v.12H7.639v-.12H7.207v-4.655h.432v-.12H6.3v.12h.432ZM1.808,173.1c0,.456-.048.576-.288.576H1.4v.12h.984v-.12H2.168c-.24,0-.288-.12-.288-.576v-3.72h0l1.176,4.3H3.1l1.152-4.391h0v4.391H3.824v.12H5.168v-.12H4.76v-4.655h.408v-.12H4.28l-.96,3.672L2.336,168.9H1.4v.12h.408Z" transform="translate(-0.684 -128.293)"/><path d="M37.219,173.883a1.153,1.153,0,0,1-.7-.264.738.738,0,0,0-.216-.1c-.072,0-.072.12-.072.24v.048h-.168v-1.848h.168v.048c0,1.032.384,1.656.984,1.656.432,0,.72-.408.72-.984,0-.7-.264-.888-.768-1.008-.768-.168-1.128-.384-1.128-1.56,0-.84.384-1.416.936-1.416a.894.894,0,0,1,.672.312c.072.072.12.12.168.12s.072-.12.1-.192v-.072h.168V170.4h-.168v-.048c-.024-.336-.144-1.464-.912-1.464-.384,0-.648.384-.648.984,0,.576.12.72.912.912.744.192,1.008.576,1.008,1.44C38.275,173.259,37.867,173.883,37.219,173.883Zm-.912-.456a.506.506,0,0,1,.264.12,1.22,1.22,0,0,0,.624.24c.6,0,.984-.576.984-1.536,0-.84-.24-1.176-.936-1.368-.792-.216-.984-.36-.984-1.008s.288-1.08.744-1.08a.809.809,0,0,1,.408.12A.686.686,0,0,0,37,168.8c-.48,0-.84.552-.84,1.32,0,1.1.312,1.3,1.056,1.464.552.12.84.336.84,1.1,0,.648-.336,1.08-.816,1.08-.456,0-.96-.36-1.056-1.344v1.128A.113.113,0,0,1,36.307,173.427Zm1.272-4.391a1.876,1.876,0,0,1,.432,1.056v-1.08c-.024.1-.072.192-.168.192-.072,0-.144-.072-.24-.144A.024.024,0,0,1,37.579,169.036Zm4.2,4.727h-1.56v-.216h.48v-4.559h-.048c-.792,0-.984.12-.984,1.272v.048H39.5v-1.536h2.976v1.536h-.168v-.048c0-1.152-.192-1.272-.984-1.272h-.048v4.559h.48v.216Zm-1.44-.1h1.368v-.024h-.48v-4.751h.144c.72,0,.984.168,1.056.84v-.864H39.643v.864c.072-.7.336-.84,1.056-.84h.144v4.751l-.5.024Zm-5.4.1H33.452v-.216h.456L33.6,172.18H32.66l-.192.84a3.711,3.711,0,0,0-.072.408c0,.024,0,.12.168.12h.288v.216h-1.08v-.216h.192c.12,0,.168,0,.24-.36l1.032-4.487h.12v.048l1.128,4.823h.408v.192Zm-1.392-.1h1.3v-.024H34.46V173.6l-1.128-4.775-.24,1.056h.072l.024.048.5,2.16h-1.1v.024h1.08l.36,1.56Zm-1.68,0h.864v-.024H32.54c-.168,0-.264-.072-.264-.216a1.477,1.477,0,0,1,.072-.432l.024-.12-.072.336c-.1.384-.168.456-.336.456Zm.84-1.68h.84l-.432-1.848Zm-2.136,1.776H27.717v-.216h.408v-4.559h-.408v-.216h2.616l.072,1.272h-.168V170c0-.672-.264-1.008-.816-1.008h-.7v2.136h.312c.408,0,.48-.312.48-.84v-.048h.168v1.944h-.168v-.048c0-.552-.072-.792-.5-.792H28.7v2.208h.6c.744,0,1.08-.12,1.08-1.248v-.048h.168v1.512Zm-2.76-.1h2.664v-.936c-.1.792-.432.912-1.152.912h-.7v-2.4h.408a.51.51,0,0,1,.576.48v-1.056c-.048.312-.168.552-.576.552h-.408v-2.328h.792a.8.8,0,0,1,.864.7l-.024-.72H27.837v.024h.408v4.751l-.432.024Zm-3.6.1H21.381v-.216h.408v-4.559h-.408v-.216H24l.072,1.272H23.9V170c0-.672-.264-1.008-.816-1.008h-.7v2.136H22.7c.408,0,.48-.312.48-.84v-.048h.168v1.944h-.168v-.048c0-.552-.072-.792-.5-.792h-.312v2.208h.6c.744,0,1.08-.12,1.08-1.248v-.048h.168v1.512Zm-2.736-.1h2.664v-.936c-.1.792-.432.912-1.152.912h-.72v-2.4h.408a.51.51,0,0,1,.576.48v-1.056c-.048.312-.168.552-.576.552h-.408v-2.328h.792a.8.8,0,0,1,.864.7l-.024-.7H21.477v.024h.408v4.751Zm-1.248.1h-2.9v-.216h.48v-4.559h-.48v-.216h1.512v.216h-.48v4.559h.552c.84,0,1.152-.12,1.152-1.44v-.048h.168Zm-2.808-.1h2.712v-1.032c-.072.864-.408,1.008-1.224,1.008h-.648v-4.751h.48v-.024h-1.32v.024h.48v4.751l-.48.024Zm-3,.1H12.91v-.216h.456v-4.559H12.91v-.216h1.536c1.32,0,1.656,1.56,1.656,2.472C16.078,172.779,15.43,173.763,14.422,173.763Zm-1.416-.1h1.44c.936,0,1.56-.936,1.56-2.376,0-.888-.336-2.376-1.56-2.376h-1.44v.024h.456v4.751l-.456-.024Zm-2.928.1H8.543v-.216H9v-4.559H8.543v-.216h1.536c1.32,0,1.656,1.56,1.656,2.472C11.735,172.779,11.087,173.763,10.079,173.763Zm-1.44-.1h1.44c.936,0,1.56-.936,1.56-2.376,0-.888-.336-2.376-1.56-2.376H8.639v.024h.456v4.751l-.456-.024Zm-1.1.1H6.1v-.216h.432v-4.559H6.1v-.216h1.44v.216H7.1v4.559h.432Zm-1.344-.1H7.439v-.024H7.007v-4.751h.432v-.024H6.191v.024h.432v4.751l-.432.024Zm-1.128.1H3.624v-.216h.432V169.54l-1.08,4.1h-.1l-1.1-4.031v3.408c0,.48.048.528.24.528h.24v.216H1.2v-.216h.168c.192,0,.24-.048.24-.528v-4.007H1.2V168.8h.984v.024l.936,3.5.936-3.528h.984v.216H4.632v4.559h.408v.192Zm-1.344-.1H4.968v-.024H4.56v-4.751h.408v-.024H4.152l-.072.288h.072v4.487l-.432.024Zm-2.424,0H2.16v-.024H2.016c-.24,0-.312-.1-.336-.336-.024.24-.1.336-.336.336l-.048.024Zm.408-4.415h.072l.024.024,1.152,4.2.216-.792-1.056-3.792H1.3v.024H1.7Zm12.574,4.391h-.456v-4.751h.288c1.3,0,1.44,1.344,1.44,2.376C15.55,173.235,14.854,173.643,14.278,173.643Zm-.36-.1h.36c.768,0,1.176-.792,1.176-2.28,0-1.56-.432-2.28-1.344-2.28h-.192Zm-3.983.1H9.479v-4.751h.288c1.3,0,1.44,1.344,1.44,2.376C11.207,173.235,10.511,173.643,9.935,173.643Zm-.36-.1h.36c.768,0,1.176-.792,1.176-2.28,0-1.56-.432-2.28-1.344-2.28H9.575v4.559Z" transform="translate(-0.532 -128.217)"/></g></svg>