<svg xmlns="http://www.w3.org/2000/svg" width="34.142" height="44.045" viewBox="0 0 34.142 44.045"><g transform="translate(18.881 -7.658)"><g transform="translate(-18.881 7.658)"><path d="M148.4,94.233l-.011-.015-12.224-15.74a1.237,1.237,0,0,0-.974-.478h0a1.237,1.237,0,0,0-.974.474L121.94,94.132q-.033.042-.062.086a17.072,17.072,0,1,0,26.526.015ZM133.9,98.551l-2.8-2.8a1.237,1.237,0,0,0-1.75,1.75l4.552,4.552v9.513l-6.335-6.335a1.237,1.237,0,0,0-1.75,1.75l8.085,8.085v4.455a14.6,14.6,0,0,1-10.021-23.834,1.226,1.226,0,0,0,.1-.133L133.9,82.892Zm2.474,20.966V82.775L146.409,95.7q.022.031.046.06a14.6,14.6,0,0,1-10.083,23.758Z" transform="translate(-118.064 -78)"/></g></g></svg>