<svg xmlns="http://www.w3.org/2000/svg" width="45.22" height="44" viewBox="0 0 45.22 44"><defs><style>.a{stroke:#000;}</style></defs><g transform="translate(0.508 -6.515)"><path class="a" d="M29.211,48.72a15.554,15.554,0,0,0-5.287-5.909A15.45,15.45,0,0,0,1.667,48.72Zm11.813-24.7h-2.59a.649.649,0,0,1,0-1.3h3.236a1.245,1.245,0,0,0,0-2.489h-9.4a1.249,1.249,0,0,0-1.246,1.243,1.25,1.25,0,0,0,1.246,1.246H35.5a.649.649,0,0,1,0,1.3H32.915V39.864h8.109V24.022Zm-9.4-.086a2.542,2.542,0,0,1,.646-5h9.4a2.542,2.542,0,0,1,.649,5v20.73a5.35,5.35,0,0,1-10.7,0V23.936Zm-5.84,9.182a.646.646,0,1,1-1.109-.663,6.373,6.373,0,0,0,.845-2.5,2.729,2.729,0,0,0-.164-1.733,3.5,3.5,0,0,0-2.48-.029,5.863,5.863,0,0,0-2.786,1.515,5.973,5.973,0,0,0-1.611,3.273,5.805,5.805,0,0,0-.076,1.28l3.118-3.121a.648.648,0,0,1,.918.916L19.32,35.169a5.48,5.48,0,0,0,1.013-.037,6.338,6.338,0,0,0,2.5-.842A.645.645,0,0,1,23.5,35.4a7.678,7.678,0,0,1-3.018,1.018,4.963,4.963,0,0,1-2.22-.189L16.087,38.4V39A16.767,16.767,0,0,1,30.812,49.082a.649.649,0,0,1-.583.933H.648a.648.648,0,0,1-.595-.9A16.766,16.766,0,0,1,14.792,39V34l-2.179-2.178a5.778,5.778,0,0,1-3.116.032A7.2,7.2,0,0,1,6.092,30a7.2,7.2,0,0,1-1.853-3.4c-.392-1.635-.149-3.175.37-3.7A3.718,3.718,0,0,1,7.4,22.37a7.694,7.694,0,0,1,3.021,1.021A.645.645,0,1,1,9.759,24.5a6.408,6.408,0,0,0-2.5-.842,2.734,2.734,0,0,0-1.733.162A3.5,3.5,0,0,0,5.495,26.3a5.889,5.889,0,0,0,1.513,2.786A5.9,5.9,0,0,0,9.8,30.6a6.067,6.067,0,0,0,1.775.181L8.442,27.65a.647.647,0,0,1,.915-.915l3.116,3.116a5.692,5.692,0,0,0-.037-1.013,6.338,6.338,0,0,0-.842-2.5.646.646,0,0,1,1.109-.663,7.7,7.7,0,0,1,1.018,3.021,4.959,4.959,0,0,1-.189,2.22l1.258,1.258V24.553A8.02,8.02,0,0,1,11.375,21.3a10.524,10.524,0,0,1-1.6-5.441,10.526,10.526,0,0,1,1.6-5.444c1.27-2.068,3.047-3.4,4.063-3.4.9,0,2.372,1.011,3.562,2.648a11.052,11.052,0,0,1,1.973,4.621A.646.646,0,1,1,19.7,14.5a9.733,9.733,0,0,0-1.74-4.076c-.95-1.3-1.975-2.112-2.519-2.112-.646,0-1.924,1.084-2.959,2.773a9.245,9.245,0,0,0-1.412,4.771,9.237,9.237,0,0,0,1.412,4.768,7.83,7.83,0,0,0,2.313,2.543V15.854a.647.647,0,1,1,1.295,0V23.16a7.21,7.21,0,0,0,1.87-1.875,9.744,9.744,0,0,0,1.74-4.078.646.646,0,0,1,1.275.213A11.076,11.076,0,0,1,19,22.044a7.221,7.221,0,0,1-2.913,2.511V36.572l1.261-1.261a5.255,5.255,0,0,1-.147-2.536,7.3,7.3,0,0,1,1.97-3.988,7.2,7.2,0,0,1,3.4-1.853c1.635-.392,3.175-.149,3.7.369a3.733,3.733,0,0,1,.531,2.8,7.687,7.687,0,0,1-1.021,3.018Zm11.189,15.6a4.07,4.07,0,0,0,4.056-4.053V41.159H32.915v3.508a4.07,4.07,0,0,0,4.053,4.053Z" transform="translate(0)"/></g></svg>